<svg xmlns="http://www.w3.org/2000/svg" viewBox="0 0 340 180">
  <g fill="none" stroke="#B8936B" stroke-opacity="0.45" stroke-width="1">
    <line x1="40" y1="55" x2="300" y2="55"/>
    <line x1="40" y1="65" x2="300" y2="65"/>
    <line x1="40" y1="75" x2="300" y2="75"/>
    <line x1="40" y1="85" x2="300" y2="85"/>
    <line x1="40" y1="95" x2="300" y2="95"/>
  </g>
  <ellipse cx="80" cy="85" rx="6.5" ry="3.8" fill="#B8936B" fill-opacity="0.65"/>
  <line x1="75.5" y1="85" x2="75.5" y2="55" stroke="#B8936B" stroke-opacity="0.65" stroke-width="1.2"/>
  <line x1="75.5" y1="55" x2="65" y2="51" stroke="#B8936B" stroke-opacity="0.65" stroke-width="1.2"/>
  <ellipse cx="122" cy="70" rx="6.5" ry="3.8" fill="#B8936B" fill-opacity="0.65"/>
  <line x1="126.5" y1="70" x2="126.5" y2="100" stroke="#B8936B" stroke-opacity="0.65" stroke-width="1.2"/>
  <line x1="126.5" y1="100" x2="137" y2="104" stroke="#B8936B" stroke-opacity="0.65" stroke-width="1.2"/>
  <ellipse cx="164" cy="60" rx="6.5" ry="3.8" fill="#B8936B" fill-opacity="0.65"/>
  <line x1="168.5" y1="60" x2="168.5" y2="90" stroke="#B8936B" stroke-opacity="0.65" stroke-width="1.2"/>
  <line x1="168.5" y1="90" x2="179" y2="94" stroke="#B8936B" stroke-opacity="0.65" stroke-width="1.2"/>
  <ellipse cx="206" cy="65" rx="6.5" ry="3.8" fill="#B8936B" fill-opacity="0.65"/>
  <line x1="210.5" y1="65" x2="210.5" y2="95" stroke="#B8936B" stroke-opacity="0.65" stroke-width="1.2"/>
  <line x1="210.5" y1="95" x2="221" y2="99" stroke="#B8936B" stroke-opacity="0.65" stroke-width="1.2"/>
  <ellipse cx="248" cy="70" rx="6.5" ry="3.8" fill="#B8936B" fill-opacity="0.65"/>
  <line x1="252.5" y1="70" x2="252.5" y2="100" stroke="#B8936B" stroke-opacity="0.65" stroke-width="1.2"/>
  <line x1="252.5" y1="100" x2="263" y2="104" stroke="#B8936B" stroke-opacity="0.65" stroke-width="1.2"/>
  <ellipse cx="290" cy="75" rx="6.5" ry="3.8" fill="#B8936B" fill-opacity="0.65"/>
  <line x1="294.5" y1="75" x2="294.5" y2="105" stroke="#B8936B" stroke-opacity="0.65" stroke-width="1.2"/>
  <line x1="294.5" y1="105" x2="305" y2="109" stroke="#B8936B" stroke-opacity="0.65" stroke-width="1.2"/>
</svg>